<svg id="Layer_1" data-name="Layer 1" xmlns="http://www.w3.org/2000/svg" viewBox="0 0 2300 750"><defs><style>.cls-1{fill:#fff;}</style></defs><title>COMITspellout_screenWHITEPLAIN</title><path class="cls-1" d="M665.5,629.82c-163.65-142.49-163.65-369.62,0-512.11l35.34,25c-71.29,71.25-107.25,148-107.25,231.4s36,160.15,107.25,231.4Z"/><path class="cls-1" d="M1011,117.71c163.65,142.49,163.65,369.62,0,512.11l-35.34-24.35c71.29-71.25,107.25-148,107.25-231.4s-36-160.15-107.25-231.4Z"/><path class="cls-1" d="M472.89,483.13c0,45.79-14.25,81.87-43.41,108.92s-69.34,40.24-119.88,40.24c-51.19,0-92-20.81-123.12-62.44-31.75-41.62-47.3-97.13-47.3-167.2s16.2-124.19,48.6-163.74c32.4-38.85,73.87-58.28,125.06-58.28,87.48,0,140,51.35,160.05,126.27l-55.08,11.8c-17.49-54.81-55.72-88.81-105-88.81-34.34,0-62.21,15.27-84.89,45.79s-33.69,72.85-33.69,127c0,54.81,10.36,98.52,30.45,131.13S274,583,312.84,583c64.8,0,105-39.55,105-99.91Z"/><path class="cls-1" d="M1195.3,624.66V188.27h73.23L1405.9,483.82,1542,188.27h71.92V624.66h-51.19V266l-140,303.88H1388.4L1246.49,261.11V624.66Z"/><path class="cls-1" d="M1734.44,624.66V188.27h51.19V624.66Z"/><path class="cls-1" d="M1976.79,624.66V235.44H1844V188.27h316.87v47.17H2028V624.66Z"/><path class="cls-1" d="M740.33,372.39c-11.6-17-20.89-33.95-27.36-50.2l-.5-1.29c-29.61,13.49-47.77,31.6-47.77,51.49s18.16,38,47.77,51.5c.17-.43.33-.86.5-1.3C719.44,406.34,728.73,389.36,740.33,372.39Z"/><path class="cls-1" d="M942.51,372.39c11.6,17,20.89,33.95,27.36,50.2.17.44.33.87.5,1.3,29.6-13.49,47.76-31.6,47.76-51.5s-18.16-38-47.76-51.49l-.5,1.29C963.4,338.44,954.11,355.42,942.51,372.39Z"/><path class="cls-1" d="M841.42,473.49c-17,11.59-33.95,20.88-50.2,27.35l-1.3.5c13.49,29.61,31.6,47.77,51.5,47.77s38-18.16,51.49-47.77l-1.29-.5C875.37,494.37,858.39,485.08,841.42,473.49Z"/><path class="cls-1" d="M841.42,271.3c17-11.59,34-20.89,50.2-27.35l1.29-.51c-13.48-29.6-31.6-47.76-51.49-47.76s-38,18.16-51.5,47.76l1.3.51C807.47,250.41,824.45,259.71,841.42,271.3Z"/><path class="cls-1" d="M770,300.93c3.8-20.2,9.22-38.8,16.14-54.86.18-.42.36-.82.54-1.23-14.78-5.53-28.07-8.29-39.42-8.29-13,0-23.49,3.63-30.75,10.89-14.06,14.06-14,39.71-2.64,70.19l1.28-.56C731.16,310.15,749.75,304.73,770,300.93Z"/><path class="cls-1" d="M912.88,443.86c-3.8,20.2-9.22,38.79-16.13,54.86-.19.42-.38.84-.56,1.26,14.45,5.4,27.81,8.27,39.37,8.27,12.82,0,23.42-3.5,30.81-10.9,14.07-14.07,14-39.72,2.64-70.19l-1.27.56C951.68,434.64,933.08,440.06,912.88,443.86Z"/><path class="cls-1" d="M918.06,404.17a368.28,368.28,0,0,1-4.68,37.08c20.65-3.94,39.2-9.53,54.76-16.37C962,409.05,952.81,392,941,374.6A369.55,369.55,0,0,1,918.06,404.17Z"/><path class="cls-1" d="M764.77,340.61a371.35,371.35,0,0,1,4.68-37.07c-20.64,3.94-39.2,9.53-54.76,16.36,6.17,15.84,15.34,32.91,27.15,50.29A373.64,373.64,0,0,1,764.77,340.61Z"/><path class="cls-1" d="M809.64,295.75a370,370,0,0,1,29.59-22.95c-16.55-11.23-33.09-20.25-48.93-26.55l-1.39-.54c-6.83,15.55-12.41,34.09-16.35,54.72A368.64,368.64,0,0,1,809.64,295.75Z"/><path class="cls-1" d="M873.2,449A373.52,373.52,0,0,1,843.63,472c17.38,11.8,34.45,21,50.28,27.14,6.84-15.55,12.42-34.11,16.36-54.75A368.07,368.07,0,0,1,873.2,449Z"/><path class="cls-1" d="M876.35,446.31c11.95-1,23.46-2.57,34.41-4.57,2-10.95,3.55-22.46,4.57-34.41q-8.94,10.21-18.84,20.13T876.35,446.31Z"/><path class="cls-1" d="M806.49,298.48c-12,1-23.47,2.57-34.42,4.57-2,10.95-3.54,22.46-4.57,34.41q9-10.21,18.85-20.13T806.49,298.48Z"/><path class="cls-1" d="M770,443.86c-20.2-3.8-38.79-9.22-54.85-16.14l-1.24-.54c-11.87,31.76-11,56.59,2.6,70.17s38.42,14.47,70.17,2.6l-.54-1.23C779.17,482.65,773.75,464.06,770,443.86Z"/><path class="cls-1" d="M912.88,300.93c20.2,3.8,38.8,9.22,54.86,16.14l1.27.56c11.4-30.48,11.43-56.13-2.64-70.19-7.39-7.4-18-10.9-30.81-10.9-11.56,0-24.92,2.86-39.37,8.27.18.42.37.83.56,1.26C903.66,262.13,909.08,280.73,912.88,300.93Z"/><path class="cls-1" d="M764.77,404.17a369.79,369.79,0,0,1-22.94-29.59c-11.24,16.55-20.25,33.1-26.56,48.93-.18.47-.35.93-.54,1.39,15.55,6.83,34.1,12.41,54.72,16.35A371.56,371.56,0,0,1,764.77,404.17Z"/><path class="cls-1" d="M918.06,340.61A371.46,371.46,0,0,1,941,370.19c11.8-17.38,21-34.45,27.14-50.29-15.56-6.83-34.11-12.42-54.76-16.36A368.07,368.07,0,0,1,918.06,340.61Z"/><path class="cls-1" d="M873.2,295.75a368.07,368.07,0,0,1,37.07,4.68c-3.94-20.65-9.52-39.2-16.36-54.76-15.83,6.17-32.9,15.34-50.28,27.15A371.17,371.17,0,0,1,873.2,295.75Z"/><path class="cls-1" d="M839.23,472A369.79,369.79,0,0,1,809.64,449a368.64,368.64,0,0,1-37.08-4.68c3.94,20.63,9.52,39.17,16.35,54.72l1.39-.54C806.14,492.24,822.68,483.22,839.23,472Z"/><path class="cls-1" d="M767.5,407.33c1,11.94,2.57,23.46,4.57,34.41,10.95,2,22.47,3.54,34.42,4.57q-10.23-9-20.14-18.85T767.5,407.33Z"/><path class="cls-1" d="M915.33,337.46c-1-11.95-2.57-23.46-4.57-34.41-11-2-22.46-3.55-34.41-4.57q10.23,9,20.14,18.85T915.33,337.46Z"/><path class="cls-1" d="M764.46,344.8c-7.67,9.11-14.74,18.34-21.12,27.58,6.33,9.17,13.39,18.41,21.12,27.59q-.9-13.58-.92-27.58C763.54,363.07,763.86,353.85,764.46,344.8Z"/><path class="cls-1" d="M918.38,400c7.72-9.18,14.78-18.42,21.11-27.58-6.33-9.16-13.39-18.39-21.11-27.57.6,9,.91,18.25.91,27.57S919,390.92,918.38,400Z"/><path class="cls-1" d="M813.86,449.36c9.18,7.72,18.41,14.78,27.58,21.11,9.23-6.38,18.47-13.45,27.57-21.12q-13.57.9-27.59.92T813.86,449.36Z"/><path class="cls-1" d="M869,295.43c-9.1-7.67-18.34-14.73-27.58-21.11-9.16,6.33-18.39,13.39-27.57,21.11q13.56-.9,27.56-.91T869,295.43Z"/><path class="cls-1" d="M915.67,341.64q-9.79-11.4-20.94-22.56c-7.36-7.37-14.9-14.36-22.54-20.94-10-.75-20.28-1.14-30.77-1.14s-20.75.39-30.74,1.14q-11.4,9.81-22.58,20.94c-7.36,7.36-14.36,14.9-20.93,22.54-.76,10-1.15,20.28-1.15,30.77s.39,20.77,1.15,30.76q9.8,11.4,20.93,22.56t22.58,20.94c10,.75,20.26,1.14,30.74,1.14s20.77-.39,30.77-1.14c7.64-6.58,15.18-13.58,22.54-20.94s14.41-15,20.94-22.56c.75-10,1.15-20.27,1.15-30.76S916.42,351.63,915.67,341.64Z"/></svg>