<?xml version="1.0" encoding="UTF-8" standalone="no"?>
<svg
   xmlns:dc="http://purl.org/dc/elements/1.1/"
   xmlns:cc="http://creativecommons.org/ns#"
   xmlns:rdf="http://www.w3.org/1999/02/22-rdf-syntax-ns#"
   xmlns:svg="http://www.w3.org/2000/svg"
   xmlns="http://www.w3.org/2000/svg"
   xmlns:sodipodi="http://sodipodi.sourceforge.net/DTD/sodipodi-0.dtd"
   xmlns:inkscape="http://www.inkscape.org/namespaces/inkscape"
   id="Capa_1"
   enable-background="new 0 0 512 512"
   height="512"
   viewBox="0 0 512 512"
   width="512"
   version="1.1"
   sodipodi:docname="favicon.svg"
   inkscape:version="1.0.1 (c497b03c, 2020-09-10)">
  <defs
     id="defs67" />
  <sodipodi:namedview
     pagecolor="#ffffff"
     bordercolor="#666666"
     borderopacity="1"
     objecttolerance="10"
     gridtolerance="10"
     guidetolerance="10"
     inkscape:pageopacity="0"
     inkscape:pageshadow="2"
     inkscape:window-width="1086"
     inkscape:window-height="884"
     id="namedview65"
     showgrid="false"
     inkscape:zoom="0.80814143"
     inkscape:cx="326.95091"
     inkscape:cy="228.19064"
     inkscape:window-x="2069"
     inkscape:window-y="447"
     inkscape:window-maximized="0"
     inkscape:current-layer="g62" />
  <g
     id="g62">
    <g
       id="g12" />
    <g
       id="g16">
      <path
         d="m296.598 203.088c0-48.259 14.64-93.099 39.721-130.32 0 0-258.598 25.795-334.626 212.651.002.021.005.041.008.061.096.146.53.804 1.319 1.914 13.214 18.601 140.647 227.606 418.045 164.265 10.521-8.886 20.322-18.599 29.289-29.049-89.69-32.588-153.756-118.571-153.756-219.522z"
         fill="#64b6ec"
         id="path14" />
    </g>
    <g
       id="g20">
      <path
         d="m299.361 167.088c5.342-34.519 18.241-66.541 36.959-94.319 0 0-258.598 25.795-334.626 212.651.002.021.005.041.008.061.096.146.53.804 1.319 1.914 4.87 6.854 25.256 39.57 62.941 74.983 25.922-107.485 119.655-188.515 233.399-195.29z"
         fill="#4b9fdb"
         id="path18" />
    </g>
    <g
       id="g24">
      <path
         d="m275.193 471.551c-80.695-79.464-103.315-205.421-47.29-310.429 25.529-47.848 63.764-84.562 108.322-108.198 0 0-247.839 43.639-334.531 232.499 5.463 47.731 24.052 91.471 52.065 127.523.55.402 80.711 58.705 221.434 58.605z"
         fill="#4b9fdb"
         id="path22" />
    </g>
    <g
       id="g28">
      <path
         d="m216.098 186.348c3.453-8.517 7.382-16.937 11.805-25.226 25.529-47.848 63.764-84.562 108.322-108.198 0 0-247.839 43.639-334.531 232.499 5.463 47.731 24.052 91.471 52.065 127.523.079.058 1.816 1.32 5.136 3.429 2.478-103.713 66.639-192.142 157.203-230.027z"
         fill="#3188ca"
         id="path26" />
    </g>
    <g
       id="g32">
      <path
         d="m256.072 367.559c-22.323-32.854-33.097-70.153-33.239-107.095 0 0-140.622 25.066-145.894 178.468l150.416 71.463c9.406 1.048 18.959 1.605 28.645 1.605 62.904 0 120.497-22.701 165.066-60.341-63.517 1.933-126.635-27.645-164.994-84.1z"
         fill="#a1ddfb"
         id="path30" />
    </g>
    <g
       id="g36">
      <path
         d="m76.955 438.939c40.247-50.228 99.025-84.958 165.976-93.816-13.43-26.926-19.987-55.901-20.098-84.66 0 0-140.622 25.066-145.894 178.468z"
         fill="#7dcfff"
         id="path34" />
    </g>
    <g
       id="g40">
      <path
         d="m169.403 359.495c2.676-39.63 17.185-75.641 39.845-104.817 0 0-139.037 37.518-132.309 184.253 39.751 38.916 92.127 64.974 150.419 71.465-39.116-37.975-61.916-92.247-57.955-150.901z"
         fill="#7dcfff"
         id="path38" />
    </g>
    <g
       id="g44">
      <path
         d="m76.952 438.944c24.579-30.676 56.07-55.568 92.116-72.32.073-2.37.174-4.744.335-7.129 2.676-39.63 17.185-75.641 39.845-104.817 0 0-139.037 37.518-132.309 184.253.004.005.008.009.013.013z"
         fill="#64b6ec"
         id="path42" />
    </g>
    <g
       id="g48">
      <path
         d="m463 54c-4 13.667-105 9-105 29s75 40 56 61-84-57-262 11c-82.2 31.41-130.45 97.49-150.32 130.45-1.11-9.66-1.68-19.49-1.68-29.45 0-14.93 1.28-29.56 3.74-43.78 21.85-37.05 74.71-107.92 180.26-158.22 55.91-26.64 110.27-37.94 155.95-39.91 76.06-3.28 129.01 19.547 123.05 39.91z"
         fill="#a1ddfb"
         id="path46" />
    </g>
    <g
       id="g52">
      <path
         d="m133.667 248.333c-61.758 46.192-77.379 126.772-79.917 164.607 7.137 9.185 14.89 17.866 23.189 25.992 6.286-22.553 24.218-77.693 56.728-110.203 58.127-58.127 147.464-8.056 160-27.062 12.666-19.205-37.667-37.334-37.667-37.334s81.667-4 84.333-30c2.667-26-124.43-47.509-206.666 14z"
         fill="#a1ddfb"
         id="path50" />
    </g>
    <g
       id="g56">
      <path
         d="m242.931 80.569c-37.069-10.431-37.931-48.569 97.019-66.479-45.68 1.97-100.04 13.27-155.95 39.91-105.55 50.3-158.41 121.17-180.26 158.22-2.46 14.22-3.74 28.85-3.74 43.78 0 9.96.57 19.79 1.68 29.45 19.87-32.96 68.12-99.04 150.32-130.45 0 0 128-64 90.931-74.431z"
         fill="#7dcfff"
         id="path54" />
    </g>
    <g
       id="g60">
      <path
         d="m206.278 215.218c-25.184 6.063-50.517 16.589-72.612 33.115-61.757 46.192-77.378 126.772-79.916 164.607 7.137 9.185 14.89 17.866 23.189 25.992 6.286-22.553 24.218-77.693 56.728-110.203 3.022-3.022 6.133-5.737 9.31-8.199l-.001-.014s50.025-46.517 23.025-52.346c-26.993-5.828-1.515-42.149 40.277-52.952z"
         fill="#7dcfff"
         id="path58" />
    </g>
  </g>
</svg>
