<svg id="Layer_1" data-name="Layer 1" xmlns="http://www.w3.org/2000/svg" viewBox="0 0 524.81 653.46"><defs><style>.cls-1{fill:#46beae;}.cls-2{fill:#fff;}</style></defs><title>1_liquid</title><g id="ToW2Wx"><path class="cls-1" d="M244.7,652.72c-105.37-4.62-203.09-78.48-233-179C-11.48,396,1,321.35,38.43,250.31,65.69,198.59,105,156.41,146,115.7,181.83,80.18,219.31,46.32,252.29,8,257.55,1.9,262-5,270.59,5.2,312.2,54.84,362,96.46,406.38,143.46c41.29,43.77,77.72,90.73,99,147.76,47.85,128.54,7.52,267.52-123.6,335C339.42,648,300.51,656.11,244.7,652.72Z"/></g><path class="cls-2" d="M373.37,352.9c4-27.7-15.13-57-52.21-69.69L330.89,244l-29.37-7.28-9.41,38c-7.72-1.91-15.65-3.72-23.53-5.5l9.5-38.29-29.35-7.28L239,262.85l-53.22-13.1L178,281.11s21.79,5,21.33,5.27c11.89,3,14,10.82,13.7,17.06L180.25,435.57c-1.45,3.61-5.13,9-13.44,7,.29.42-21.35-5.3-21.35-5.3l-14.53,33.62,53.15,13.37-10.6,42.79,29.33,7.28,10.49-42.28q12,3.26,23.4,6l-10.45,42.06,29.37,7.35,10.6-42.71c50.07,9.41,88.15-3.57,97.5-41.24,7.63-30.74.75-53.21-21.06-69.67C356.94,389.29,370.21,374.52,373.37,352.9Zm-60.23,91.89c-9,36.46-70.43,16.83-90.34,11.92l16-64.65C258.74,397,322.56,406.76,313.14,444.79Zm9-94.6c-8.28,33.17-59.39,16.39-76,12.27l14.54-58.63c16.61,4.12,70,11.76,61.46,46.36Z"/></svg>