<?xml version="1.0" encoding="utf-8"?>
<!-- Generator: Adobe Illustrator 25.3.0, SVG Export Plug-In . SVG Version: 6.00 Build 0)  -->
<svg version="1.1" id="Layer_1" xmlns="http://www.w3.org/2000/svg" xmlns:xlink="http://www.w3.org/1999/xlink" x="0px" y="0px"
	 viewBox="0 0 794.3 653.5" style="enable-background:new 0 0 794.3 653.5;" xml:space="preserve">
<style type="text/css">
	.st0{fill-rule:evenodd;clip-rule:evenodd;fill:#009393;}
	.st1{fill-rule:evenodd;clip-rule:evenodd;fill:#FFFFFF;}
</style>
<g>
	<path class="st0" d="M173.1,0h457.5c10.7,0,21,5.6,26.6,15.4l133.1,231.1c7,12.1,4.7,27.1-5.1,36.9L418.2,644.7
		c-11.7,11.7-30.8,11.7-42.9,0L9.2,283.8c-10.3-9.8-12.1-25.7-4.7-37.3L147.4,14.9C153,5.6,162.8,0,173.1,0z"/>
	<path class="st1" d="M441.5,213.3v-44.8h130.2v-64.9H224.4v64.9h130.2v44.8c-91.5,4.7-160.1,24.7-160.6,48.1v49.5
		c0.5,23.8,69.1,43.4,160.6,48.1v110.2H441V359c91.5-4.7,160.1-24.7,160.6-48.1v-49.5C601.6,238.1,532.5,218,441.5,213.3z
		 M398.1,324.9c-97.6,0-179.3-16.8-199.3-38.7c16.8-18.7,78.4-33.6,155.9-37.8v47.2c14,0.9,28.5,0.9,43.4,0.9
		c14.9,0,29.4-0.5,43.4-0.9v-47.2c78,4.2,139.1,19.1,155.9,37.8C577.4,308.6,495.7,324.9,398.1,324.9z"/>
</g>
</svg>
